<?xml version="1.0" encoding="UTF-8" standalone="no"?>
<!-- Created with Inkscape (http://www.inkscape.org/) -->

<svg
   xmlns:dc="http://purl.org/dc/elements/1.1/"
   xmlns:cc="http://creativecommons.org/ns#"
   xmlns:rdf="http://www.w3.org/1999/02/22-rdf-syntax-ns#"
   xmlns:svg="http://www.w3.org/2000/svg"
   xmlns="http://www.w3.org/2000/svg"
   xmlns:sodipodi="http://sodipodi.sourceforge.net/DTD/sodipodi-0.dtd"
   xmlns:inkscape="http://www.inkscape.org/namespaces/inkscape"
   width="500"
   height="500"
   id="svg2"
   version="1.1"
   inkscape:version="0.48.4 r9939"
   sodipodi:docname="asteroid.svg"
   inkscape:export-filename="C:\Projects-Personal\AB-Theme-Game\wip asset\bitmap.png"
   inkscape:export-xdpi="2.8800001"
   inkscape:export-ydpi="2.8800001">
  <defs
     id="defs4" />
  <sodipodi:namedview
     id="base"
     pagecolor="#ffffff"
     bordercolor="#666666"
     borderopacity="1.0"
     inkscape:pageopacity="0"
     inkscape:pageshadow="2"
     inkscape:zoom="0.49497475"
     inkscape:cx="69.077596"
     inkscape:cy="213.39006"
     inkscape:document-units="px"
     inkscape:current-layer="layer1"
     showgrid="false"
     inkscape:window-width="1214"
     inkscape:window-height="623"
     inkscape:window-x="75"
     inkscape:window-y="75"
     inkscape:window-maximized="0" />
  <metadata
     id="metadata7">
    <rdf:RDF>
      <cc:Work
         rdf:about="">
        <dc:format>image/svg+xml</dc:format>
        <dc:type
           rdf:resource="http://purl.org/dc/dcmitype/StillImage" />
        <dc:title></dc:title>
      </cc:Work>
    </rdf:RDF>
  </metadata>
  <g
     inkscape:label="Layer 1"
     inkscape:groupmode="layer"
     id="layer1"
     transform="translate(0,-552.36218)">
    <path
       style="fill:#944d06;fill-opacity:1"
       d="M 250 0 C 216.32834 6.9312504e-015 184.22412 6.6806612 154.90625 18.75 C 163.6293 32.448449 168.65625 48.71285 168.65625 66.15625 C 168.65625 114.96475 129.08975 154.53125 80.28125 154.53125 C 60.308799 154.53125 41.893481 147.8915 27.09375 136.71875 C 9.7750734 170.72809 -3.7007434e-017 209.21891 0 250 C -1.8503717e-017 388.07119 111.92881 500 250 500 C 276.76384 500 302.54429 495.78647 326.71875 488 C 309.65877 471.88786 299 449.06789 299 423.75 C 299 374.9415 338.5665 335.375 387.375 335.375 C 420.0538 335.375 448.61447 353.09684 463.90625 379.46875 C 486.81529 341.70343 500 297.39672 500 250 C 500 214.56243 492.60871 180.85536 479.3125 150.3125 C 474.61429 194.69631 437.03574 229.28125 391.40625 229.28125 C 342.59775 229.28125 303.03125 189.71475 303.03125 140.90625 C 303.03125 92.097753 342.59775 52.53125 391.40625 52.53125 C 395.87349 52.53125 400.27334 52.860344 404.5625 53.5 C 362.02464 19.992437 308.35194 -2.3245295e-014 250 0 z M 191.40625 200 C 240.21475 200 279.78125 239.5665 279.78125 288.375 C 279.78125 337.1835 240.21475 376.75 191.40625 376.75 C 142.59775 376.75 103.03125 337.1835 103.03125 288.375 C 103.03125 239.5665 142.59775 200 191.40625 200 z "
       transform="translate(0,552.36218)"
       id="path2999" />
  </g>
</svg>
