<?xml version="1.0" encoding="UTF-8" standalone="no"?>
<!-- Created with Inkscape (http://www.inkscape.org/) -->

<svg
   xmlns:dc="http://purl.org/dc/elements/1.1/"
   xmlns:cc="http://creativecommons.org/ns#"
   xmlns:rdf="http://www.w3.org/1999/02/22-rdf-syntax-ns#"
   xmlns:svg="http://www.w3.org/2000/svg"
   xmlns="http://www.w3.org/2000/svg"
   xmlns:sodipodi="http://sodipodi.sourceforge.net/DTD/sodipodi-0.dtd"
   xmlns:inkscape="http://www.inkscape.org/namespaces/inkscape"
   width="500"
   height="500"
   id="svg2"
   version="1.1"
   inkscape:version="0.48.4 r9939"
   sodipodi:docname="asteroid.svg"
   inkscape:export-filename="C:\Projects-Personal\AB-Theme-Game\asset\img\asteroid.png"
   inkscape:export-xdpi="5.7600002"
   inkscape:export-ydpi="5.7600002">
  <defs
     id="defs4" />
  <sodipodi:namedview
     id="base"
     pagecolor="#ffffff"
     bordercolor="#666666"
     borderopacity="1.0"
     inkscape:pageopacity="0"
     inkscape:pageshadow="2"
     inkscape:zoom="0.49497475"
     inkscape:cx="-246.09"
     inkscape:cy="213.39006"
     inkscape:document-units="px"
     inkscape:current-layer="layer1"
     showgrid="false"
     inkscape:window-width="1214"
     inkscape:window-height="623"
     inkscape:window-x="75"
     inkscape:window-y="75"
     inkscape:window-maximized="0" />
  <metadata
     id="metadata7">
    <rdf:RDF>
      <cc:Work
         rdf:about="">
        <dc:format>image/svg+xml</dc:format>
        <dc:type
           rdf:resource="http://purl.org/dc/dcmitype/StillImage" />
        <dc:title></dc:title>
      </cc:Work>
    </rdf:RDF>
  </metadata>
  <g
     inkscape:label="Layer 1"
     inkscape:groupmode="layer"
     id="layer1"
     transform="translate(0,-552.36218)">
    <path
       sodipodi:type="arc"
       style="fill:#e58b03;fill-opacity:1"
       id="path2991"
       sodipodi:cx="-558.61438"
       sodipodi:cy="146.44661"
       sodipodi:rx="192.93913"
       sodipodi:ry="171.72594"
       d="m -365.67525,146.44661 c 0,94.84162 -86.38179,171.72594 -192.93913,171.72594 -106.55734,0 -192.93913,-76.88432 -192.93913,-171.72594 0,-94.841617 86.38179,-171.725937 192.93913,-171.725937 106.55734,0 192.93913,76.88432 192.93913,171.725937 z"
       transform="matrix(1.2957454,0,0,1.455808,973.82203,589.16402)" />
    <path
       style="fill:#944d06;fill-opacity:1"
       d="m 250,586.70737 c -29.04582,0 -56.73954,5.76286 -82.0297,16.17411 7.52467,11.81654 11.86101,25.84653 11.86101,40.89354 0,42.10315 -34.13082,76.23398 -76.23397,76.23398 -17.228622,0 -33.11403,-5.72758 -45.880563,-15.36541 -14.939424,29.33711 -23.371591,62.54004 -23.371591,97.71859 0,119.10287 96.551944,215.65482 215.654814,215.65482 23.087,0 45.32572,-3.6347 66.17907,-10.3514 -14.71627,-13.89868 -23.91073,-33.58363 -23.91073,-55.42332 0,-42.10316 34.13083,-76.23398 76.23398,-76.23398 28.18936,0 52.82635,15.2872 66.01733,38.03612 19.76178,-32.5771 31.13516,-70.79692 31.13516,-111.68224 0,-30.56913 -6.37587,-59.6455 -17.84543,-85.99236 -4.05277,38.28633 -36.46875,68.11997 -75.82963,68.11997 -42.10315,0 -76.23397,-34.13083 -76.23397,-76.23398 0,-42.10315 34.13082,-76.23398 76.23397,-76.23398 3.85353,0 7.64893,0.28389 11.34884,0.83567 C 346.63461,603.95323 300.33551,586.70737 250,586.70737 z m -50.5441,172.52385 c 42.10315,0 76.23398,34.13082 76.23398,76.23397 0,42.10316 -34.13083,76.23398 -76.23398,76.23398 -42.10315,0 -76.23397,-34.13082 -76.23397,-76.23398 0,-42.10315 34.13082,-76.23397 76.23397,-76.23397 z"
       id="path2999"
       inkscape:connector-curvature="0" />
  </g>
</svg>
