<?xml version="1.0" encoding="UTF-8" standalone="no"?>
<!-- Created with Inkscape (http://www.inkscape.org/) -->

<svg
   xmlns:dc="http://purl.org/dc/elements/1.1/"
   xmlns:cc="http://creativecommons.org/ns#"
   xmlns:rdf="http://www.w3.org/1999/02/22-rdf-syntax-ns#"
   xmlns:svg="http://www.w3.org/2000/svg"
   xmlns="http://www.w3.org/2000/svg"
   xmlns:sodipodi="http://sodipodi.sourceforge.net/DTD/sodipodi-0.dtd"
   xmlns:inkscape="http://www.inkscape.org/namespaces/inkscape"
   width="500"
   height="500"
   id="svg2"
   version="1.1"
   inkscape:version="0.48.4 r9939"
   sodipodi:docname="player-eye.svg"
   inkscape:export-filename="C:\Projects-Git\AB-Theme-Game\wip asset\player-eye.png"
   inkscape:export-xdpi="90"
   inkscape:export-ydpi="90">
  <defs
     id="defs4" />
  <sodipodi:namedview
     id="base"
     pagecolor="#ffffff"
     bordercolor="#666666"
     borderopacity="1.0"
     inkscape:pageopacity="0"
     inkscape:pageshadow="2"
     inkscape:zoom="0.35"
     inkscape:cx="419.14069"
     inkscape:cy="220.11987"
     inkscape:document-units="px"
     inkscape:current-layer="layer1"
     showgrid="false"
     inkscape:window-width="1214"
     inkscape:window-height="623"
     inkscape:window-x="75"
     inkscape:window-y="75"
     inkscape:window-maximized="0" />
  <metadata
     id="metadata7">
    <rdf:RDF>
      <cc:Work
         rdf:about="">
        <dc:format>image/svg+xml</dc:format>
        <dc:type
           rdf:resource="http://purl.org/dc/dcmitype/StillImage" />
        <dc:title></dc:title>
      </cc:Work>
    </rdf:RDF>
  </metadata>
  <g
     inkscape:label="Layer 1"
     inkscape:groupmode="layer"
     id="layer1"
     transform="translate(0,-552.36218)">
    <path
       transform="matrix(3.3355339,0,0,3.3355339,216.30603,947.33139)"
       d="m 80.812203,-43.46207 a 70.710678,70.710678 0 1 1 -141.421356,0 70.710678,70.710678 0 1 1 141.421356,0 z"
       sodipodi:ry="70.710678"
       sodipodi:rx="70.710678"
       sodipodi:cy="-43.46207"
       sodipodi:cx="10.101525"
       id="path3771"
       style="fill:#ffffff;fill-opacity:1"
       sodipodi:type="arc" />
    <path
       style="fill:#f7941f;fill-opacity:0.94117647"
       d="m 374.17319,602.11989 c -3.88934,-2.41687 -7.74388,-4.92818 -11.77986,-7.12066 -6.6839,-3.63089 -13.51638,-6.94999 -20.57081,-9.93376 -7.0544,-2.98377 -14.32821,-5.70266 -21.71362,-7.99976 -7.3854,-2.29709 -14.91582,-4.2311 -22.59272,-5.80201 -7.67689,-1.57093 -15.45506,-2.71116 -23.38389,-3.51638 -7.92884,-0.80522 -16.03381,-1.23073 -24.17509,-1.23073 -8.14128,0 -16.15834,0.42551 -24.08717,1.23073 -7.92884,0.80522 -15.70701,1.94545 -23.3839,3.51638 -7.6769,1.57091 -15.20732,3.50492 -22.59272,5.80201 -1.19858,0.3728 -2.32611,0.92734 -3.51638,1.31864 34.10705,8.98502 59.42676,39.73753 59.42676,76.657 0,43.94337 -35.61465,79.55802 -79.55801,79.55802 -42.45124,0 -77.163439,-33.19967 -79.470098,-75.07464 -16.342315,28.88318 -25.669544,62.2888 -25.669544,97.84317 0,109.85842 88.992632,198.85105 198.851062,198.85105 109.85843,0 198.93897,-88.99263 198.93897,-198.85105 0,-62.85365 -29.19612,-118.78878 -74.72298,-155.24801 z"
       id="path3790"
       inkscape:connector-curvature="0" />
  </g>
</svg>
